<?xml version="1.0" encoding="utf-8"?>
<!-- Generator: Adobe Illustrator 18.1.0, SVG Export Plug-In . SVG Version: 6.00 Build 0)  -->
<svg version="1.1" id="Lager_1" xmlns="http://www.w3.org/2000/svg" xmlns:xlink="http://www.w3.org/1999/xlink" x="0px" y="0px"
	 viewBox="0 0 564.7 375.3" enable-background="new 0 0 564.7 375.3" xml:space="preserve">
<g>
	<circle fill="#000000" stroke="#FFFFFF" stroke-width="15" stroke-miterlimit="10" cx="102.8" cy="173.6" r="86.3"/>
	<circle fill="#000000" stroke="#FFFFFF" stroke-width="15" stroke-miterlimit="10" cx="453.9" cy="173.6" r="86.3"/>
	<circle fill="#FFFFFF" cx="105.7" cy="173.7" r="45.9"/>
	<circle fill="#FFFFFF" cx="452.5" cy="173.6" r="45.9"/>
	<path fill="#000000" stroke="#FFFFFF" stroke-width="15" stroke-miterlimit="10" d="M280.1,16.3c-94.5,0-171,76.6-171,171
		s76.6,171,171,171s171-76.6,171-171S374.5,16.3,280.1,16.3"/>
	<circle fill="#FFFFFF" stroke="#000000" stroke-width="15" stroke-miterlimit="10" cx="280.1" cy="232.9" r="108.3"/>
	<line fill="none" stroke="#000000" stroke-width="15" stroke-miterlimit="10" x1="172" y1="256" x2="388.1" y2="256"/>
	<circle fill="#FFFFFF" cx="227" cy="137.1" r="55"/>
	<circle fill="#FFFFFF" cx="335" cy="137.1" r="55"/>
	<circle fill="#000000" cx="235.6" cy="147.2" r="25.9"/>
	<circle fill="#000000" cx="325.7" cy="147.2" r="25.9"/>
	<circle fill="#000000" cx="260.4" cy="197" r="5"/>
	<circle fill="#000000" cx="300.6" cy="197" r="5"/>
	<rect x="394.9" y="314.4" fill="none" width="164.7" height="29.5"/>
</g>
</svg>
